<svg width="48" height="55" viewBox="0 0 48 55" fill="none" xmlns="http://www.w3.org/2000/svg">
<g id="Group 183400">
<path id="Vector" d="M15.2854 38.0714C20.611 38.0714 24.9283 33.7541 24.9283 28.4285C24.9283 23.1029 20.611 18.7856 15.2854 18.7856C9.95983 18.7856 5.64258 23.1029 5.64258 28.4285C5.64258 33.7541 9.95983 38.0714 15.2854 38.0714Z" stroke="url(#paint0_linear_87_6901)" stroke-width="3.57143"/>
<path id="Vector_2" d="M0.00261579 30.7144C0.000871931 30.8332 0 30.9522 0 31.0715C0 44.2869 10.7132 55.0001 23.9286 55.0001C37.1439 55.0001 47.8571 44.2869 47.8571 31.0715C47.8571 30.9522 47.8563 30.8332 47.8545 30.7144H0.00261579Z" fill="url(#paint1_linear_87_6901)"/>
<path id="Vector_3" d="M35.6431 24.5001C38.0101 24.5001 39.9288 22.5814 39.9288 20.2144C39.9288 17.8475 38.0101 15.9287 35.6431 15.9287C33.2762 15.9287 31.3574 17.8475 31.3574 20.2144C31.3574 22.5814 33.2762 24.5001 35.6431 24.5001Z" stroke="#EAA427" stroke-width="2.14286"/>
<path id="Vector_4" d="M27.7857 10.2145C30.1526 10.2145 32.0714 8.29571 32.0714 5.92878C32.0714 3.56184 30.1526 1.64307 27.7857 1.64307C25.4188 1.64307 23.5 3.56184 23.5 5.92878C23.5 8.29571 25.4188 10.2145 27.7857 10.2145Z" stroke="#EA7727" stroke-width="2.14286"/>
</g>
<defs>
<linearGradient id="paint0_linear_87_6901" x1="7.42835" y1="20.2142" x2="22.4283" y2="37.7142" gradientUnits="userSpaceOnUse">
<stop stop-color="#EA6D27"/>
<stop offset="1" stop-color="#EAA827"/>
</linearGradient>
<linearGradient id="paint1_linear_87_6901" x1="6.42857" y1="30.7144" x2="35" y2="46.4286" gradientUnits="userSpaceOnUse">
<stop stop-color="#FF9400"/>
<stop offset="1" stop-color="#EA6D27"/>
</linearGradient>
</defs>
</svg>
