<svg width="219" height="170" viewBox="0 0 219 170" fill="none" xmlns="http://www.w3.org/2000/svg">
<g id="game-icons:food-truck">
<path id="Vector" d="M114.29 8.32715L84.3488 31.6225C81.0552 34.1658 81.2263 37.2205 83.3222 40.574L84.1777 42.0018L82.8517 42.9646L72.7572 50.3689L82.039 57.5408L91.5347 49.6717L92.7751 48.6756L94.5716 49.3064C99.1484 51.0662 103.383 51.199 106.42 48.8416L136.447 25.5164L132.084 22.1363L112.536 37.2869L108.43 34.033L127.892 18.9156L123.23 15.2533L103.768 30.4271L99.6189 27.2064L119.081 12.0359L114.29 8.32715ZM12.391 9.24355C9.94009 12.2717 9.56369 16.1598 10.9709 20.7252C12.6263 26.1439 16.8223 32.4193 22.6951 38.3494C34.3937 50.2361 44.099 54.3201 59.8396 56.5447L60.8661 56.6775C66.6833 62.0232 72.5005 67.3357 78.3177 72.6814H94.1867L12.391 9.24355ZM58.5992 60.8279L42.4565 72.6814H63.6892L67.8382 69.2615L58.5992 60.8279ZM11.2276 77.3299V98.4139L18.2895 81.9783H119.68L126.737 98.4139V77.3299H11.2276ZM23.8415 87.9549L19.5641 97.9158H38.8293L43.1152 87.9549H23.8415ZM51.1994 87.9549L46.922 97.9158H65.1435V87.9549H51.1994ZM72.8427 87.9549V97.9158H91.0642L86.7868 87.9549H72.8427ZM94.8283 87.9549L99.1056 97.9158H118.396L114.119 87.9549H94.8283ZM134.436 88.5525V151.041H168.227C170.024 144.998 177.039 140.416 185.337 140.416C193.635 140.416 200.65 144.998 202.446 151.041H208.862V129.791L184.824 125.142H140.425V97.9158H166.816L163.865 92.9353L134.436 88.5525ZM11.2276 103.892V141.81L29.2651 151.041H35.617C37.3878 144.998 44.3984 140.416 52.7392 140.416C61.0372 140.416 68.0521 144.998 69.8486 151.041H126.737V103.892H120.749V130.455H17.2159V103.892H11.2276ZM148.124 103.892V119.166H179.092L169.254 103.892H148.124ZM27.9092 110.201L34.753 115.513H41.5967L48.4619 110.201H27.9092ZM24.4873 119.166V125.142H113.477V119.166H24.4873ZM52.7392 146.392C47.2214 146.392 42.8585 149.779 42.8585 154.029C42.8585 158.279 47.2214 161.666 52.7392 161.666C58.2142 161.666 62.5771 158.279 62.5771 154.029C62.5771 149.779 58.2142 146.392 52.7392 146.392ZM185.337 146.392C179.862 146.392 175.499 149.779 175.499 154.029C175.499 158.279 179.862 161.666 185.337 161.666C190.812 161.666 195.175 158.279 195.175 154.029C195.175 149.779 190.812 146.392 185.337 146.392Z" fill="#DDDFE0"/>
</g>
</svg>
