<svg width="126" height="146" viewBox="0 0 126 146" fill="none" xmlns="http://www.w3.org/2000/svg">
<g id="ion:fast-food">
<g id="Group 183395">
<path id="Vector" d="M90.5621 36.4995H90.5843H90.5621ZM118.014 27.3745H95.6046L97.7998 17.2059L107.23 13.4846C109.236 12.6947 110.429 10.2253 109.851 7.86416C109.704 7.27021 109.454 6.71709 109.117 6.23835C108.78 5.7596 108.362 5.36521 107.889 5.07909C107.417 4.79298 106.899 4.6211 106.367 4.57388C105.835 4.52667 105.301 4.60511 104.796 4.80443L93.2298 9.36693C92.6069 9.61305 92.0472 10.0361 91.6018 10.5976C91.1564 11.159 90.8396 11.8408 90.6803 12.5806L87.4884 27.3745H55.2354C53.1165 27.3745 51.2979 29.2623 51.1921 31.7175C51.1664 32.3344 51.2491 32.9509 51.4352 33.5296C51.6212 34.1084 51.9067 34.6374 52.2744 35.0845C52.6421 35.5316 53.0843 35.8876 53.5743 36.1308C54.0642 36.374 54.5916 36.4995 55.1246 36.4995H55.8014L56.0475 38.969C56.1054 39.5457 56.3443 40.0776 56.7187 40.4635C57.093 40.8494 57.5767 41.0624 58.0778 41.062C67.6754 41.062 76.205 44.1703 82.7167 50.0502C86.3385 53.2838 89.2746 57.434 91.3004 62.1836C92.4345 64.8552 93.2713 67.6828 93.7909 70.5985C93.8943 71.1667 94.1848 71.6659 94.6005 71.9901C97.9483 74.6222 100.418 78.5024 101.599 82.986C102.78 87.4696 102.601 92.2865 101.092 96.6362C100.917 97.1396 100.904 97.6994 101.056 98.2131C101.927 101.108 102.373 104.152 102.375 107.218C102.375 113.589 100.504 119.66 97.1082 124.313C95.1829 126.97 92.7608 129.083 90.0257 130.493C89.5525 130.734 89.1803 131.182 88.9896 131.739C87.9674 134.824 86.5242 137.699 84.715 140.254C84.6396 140.357 84.5914 140.484 84.5758 140.618C84.5603 140.752 84.5781 140.889 84.6272 141.012C84.6762 141.135 84.7545 141.239 84.8529 141.312C84.9513 141.386 85.0656 141.425 85.1825 141.426H97.2928C100.258 141.412 103.111 140.112 105.29 137.782C107.47 135.453 108.818 132.262 109.068 128.839L117.485 36.4995H118.125C118.658 36.5003 119.186 36.3754 119.677 36.1325C120.167 35.8896 120.61 35.5338 120.978 35.0866C121.346 34.6394 121.632 34.1101 121.819 33.531C122.005 32.9518 122.088 32.3349 122.062 31.7175C121.959 29.2623 120.133 27.3745 118.014 27.3745Z" fill="#DDDFE0"/>
<path id="Vector_2" d="M26.7479 91.25C27.5245 91.2458 28.2941 91.42 29.0122 91.7626C29.7303 92.1052 30.3827 92.6095 30.9315 93.2461L34.7484 97.6689C34.8399 97.7749 34.9484 97.859 35.0679 97.9165C35.1874 97.9739 35.3155 98.0034 35.4449 98.0034C35.5742 98.0034 35.7023 97.9739 35.8218 97.9165C35.9413 97.859 36.0499 97.7749 36.1413 97.6689L39.9509 93.2461C40.4997 92.6095 41.1521 92.1052 41.8702 91.7626C42.5883 91.42 43.3579 91.2458 44.1345 91.25H92.5116C92.7701 91.253 93.0266 91.197 93.2665 91.0851C93.5063 90.9732 93.7248 90.8077 93.9095 90.598C94.0941 90.3883 94.2413 90.1385 94.3426 89.8628C94.444 89.5872 94.4974 89.2911 94.5 88.9916V88.9688C94.4972 86.3403 93.7125 83.7932 92.278 81.757C90.8435 79.7208 88.847 78.32 86.625 77.7906C86.4232 69.3243 83.4258 62.2382 77.8862 57.2594C72.7625 52.6284 65.9162 50.1875 58.0781 50.1875H40.3594C23.5709 50.1875 12.1989 61.243 11.8125 77.7906C9.59056 78.32 7.59406 79.7208 6.15956 81.757C4.72506 83.7932 3.94028 86.3403 3.9375 88.9688C3.9375 89.5738 4.14493 90.154 4.51414 90.5818C4.88335 91.0097 5.38411 91.25 5.90625 91.25H26.7479ZM45.7587 100.375C45.5001 100.375 45.2439 100.434 45.0049 100.548C44.7659 100.663 44.5488 100.83 44.3658 101.042L38.9173 107.358C37.9943 108.428 36.7426 109.028 35.4375 109.028C34.1324 109.028 32.8807 108.428 31.9577 107.358L26.5092 101.042C26.3263 100.83 26.1091 100.663 25.8701 100.548C25.6311 100.434 25.3749 100.375 25.1163 100.375H8.03743C7.1125 100.37 6.2159 100.745 5.50616 101.432C4.79641 102.119 4.31923 103.075 4.15899 104.131C4.01089 105.151 3.93681 106.184 3.9375 107.219C3.9375 115.942 9.13747 123.048 15.5679 123.188C16.1659 127.499 17.6129 131.394 19.7909 134.443C23.0122 138.951 27.6954 141.438 32.9766 141.438H65.4609C70.7421 141.438 75.4253 138.951 78.6466 134.437C80.8246 131.389 82.2716 127.493 82.8696 123.182C89.3 123.048 94.5 115.942 94.5 107.213C94.5007 106.178 94.4266 105.145 94.2785 104.125C94.1172 103.07 93.6396 102.116 92.93 101.43C92.2203 100.744 91.3243 100.37 90.4001 100.375H45.7587Z" fill="#DDDFE0"/>
</g>
</g>
</svg>
