<svg width="130" height="110" viewBox="0 0 130 110" fill="none" xmlns="http://www.w3.org/2000/svg">
<g id="mdi:delivery-dining">
<path id="Vector" d="M102.916 68.7503C105.896 68.7503 108.333 70.8128 108.333 73.3337C108.333 75.8545 105.896 77.917 102.916 77.917C99.9372 77.917 97.4997 75.8545 97.4997 73.3337C97.4997 70.8128 99.9372 68.7503 102.916 68.7503ZM102.916 59.5837C93.9247 59.5837 86.6663 65.7253 86.6663 73.3337C86.6663 80.942 93.9247 87.0837 102.916 87.0837C111.908 87.0837 119.166 80.942 119.166 73.3337C119.166 65.7253 111.908 59.5837 102.916 59.5837ZM54.1663 27.5003H27.083V36.667H54.1663V27.5003ZM92.083 22.917H75.833V32.0837H92.083V44.2295L73.1247 64.167H54.1663V41.2503H32.4997C20.5288 41.2503 10.833 49.4545 10.833 59.5837V73.3337H21.6663C21.6663 80.942 28.9247 87.0837 37.9163 87.0837C46.908 87.0837 54.1663 80.942 54.1663 73.3337H78.5413L102.916 47.4378V32.0837C102.916 29.6525 101.775 27.3209 99.7433 25.6018C97.7117 23.8828 94.9562 22.917 92.083 22.917ZM37.9163 77.917C34.9372 77.917 32.4997 75.8545 32.4997 73.3337H43.333C43.333 75.8545 40.8955 77.917 37.9163 77.917Z" fill="#DDDFE0"/>
</g>
</svg>
